<?xml version="1.0" encoding="UTF-8" standalone="no"?>
<svg
   width="560pt"
   height="560pt"
   version="1.1"
   viewBox="0 0 560 560"
   id="svg1338"
   sodipodi:docname="email.svg"
   inkscape:version="1.2.1 (9c6d41e410, 2022-07-14)"
   xmlns:inkscape="http://www.inkscape.org/namespaces/inkscape"
   xmlns:sodipodi="http://sodipodi.sourceforge.net/DTD/sodipodi-0.dtd"
   xmlns:xlink="http://www.w3.org/1999/xlink"
   xmlns="http://www.w3.org/2000/svg"
   xmlns:svg="http://www.w3.org/2000/svg">
  <sodipodi:namedview
     id="namedview1340"
     pagecolor="#505050"
     bordercolor="#eeeeee"
     borderopacity="1"
     inkscape:showpageshadow="0"
     inkscape:pageopacity="0"
     inkscape:pagecheckerboard="0"
     inkscape:deskcolor="#505050"
     inkscape:document-units="pt"
     showgrid="false"
     inkscape:zoom="1.1003571"
     inkscape:cx="466.66667"
     inkscape:cy="466.66667"
     inkscape:window-width="2482"
     inkscape:window-height="1411"
     inkscape:window-x="2391"
     inkscape:window-y="-9"
     inkscape:window-maximized="1"
     inkscape:current-layer="svg1338" />
  <defs
     id="defs1262">
    <symbol
       id="u"
       overflow="visible">
      <path
         d="M 3.6562,-0.21875 C 3.4687,-0.125 3.26948,-0.05078 3.06245,0 2.86323,0.050781 2.6562,0.078125 2.43745,0.078125 c -0.66797,0 -1.1992,-0.17969 -1.5938,-0.54688 -0.38672,-0.375 -0.57812,-0.87891 -0.57812,-1.5156 0,-0.64453 0.19141,-1.1484 0.57812,-1.5156 0.39453,-0.375 0.92578,-0.5625 1.5938,-0.5625 0.21875,0 0.42578,0.027344 0.625,0.078125 0.20703,0.054687 0.40625,0.125 0.59375,0.21875 v 0.82812 c -0.1875,-0.125 -0.375,-0.21875 -0.5625,-0.28125 -0.17969,-0.0625 -0.37109,-0.09375 -0.57812,-0.09375 -0.36719,0 -0.65625,0.12109 -0.875,0.35938 -0.21094,0.23047 -0.3125,0.55469 -0.3125,0.96875 0,0.40625 0.10156,0.73047 0.3125,0.96875 0.21875,0.23047 0.50781,0.34375 0.875,0.34375 0.20703,0 0.39844,-0.023437 0.57812,-0.078125 0.1875,-0.0625 0.375,-0.16016 0.5625,-0.29688 z"
         id="path1199" />
    </symbol>
    <symbol
       id="c"
       overflow="visible">
      <path
         d="M 2.6875,-2.1719 C 2.601562,-2.210963 2.51953,-2.242213 2.4375,-2.26565 2.351562,-2.285181 2.26953,-2.2969 2.1875,-2.2969 c -0.25,0 -0.44531,0.085937 -0.57812,0.25 -0.125,0.15625 -0.1875,0.38281 -0.1875,0.67188 V -2e-5 H 0.45313 v -2.9844 h 0.96875 v 0.48438 c 0.11328,-0.19531 0.25,-0.33594 0.40625,-0.42188 0.16406,-0.09375 0.35938,-0.14062 0.57812,-0.14062 h 0.10938 c 0.039063,0 0.09375,0.00781 0.15625,0.015625 z"
         id="path1202" />
    </symbol>
    <symbol
       id="a"
       overflow="visible">
      <path
         d="m 3.4375,-1.5 v 0.26562 H 1.2031 c 0.03125,0.23047 0.11328,0.40234 0.25,0.51562 0.13281,0.10547 0.32812,0.15625 0.57812,0.15625 0.20703,0 0.41406,-0.023438 0.625,-0.078125 0.20703,-0.0625 0.42188,-0.15625 0.64062,-0.28125 v 0.73438 c -0.21875,0.09375 -0.44531,0.16406 -0.67188,0.20312 -0.23047,0.039062 -0.45312,0.0625 -0.67188,0.0625 -0.54297,0 -0.96484,-0.13281 -1.2656,-0.40625 -0.30469,-0.28125 -0.45312,-0.67188 -0.45312,-1.1719 0,-0.47656 0.14453,-0.85938 0.4375,-1.1406 0.30078,-0.28125 0.70703,-0.42188 1.2188,-0.42188 0.46875,0 0.84375,0.14062 1.125,0.42188 0.28125,0.28126 0.42188,0.66406 0.42188,1.1406 z M 2.46875,-1.82812 C 2.46875,-2.0039 2.410156,-2.14453 2.29687,-2.25 2.1914,-2.36328 2.05468,-2.42188 1.89062,-2.42188 c -0.1875,0 -0.33984,0.054687 -0.45312,0.15625 -0.11719,0.10547 -0.1875,0.25 -0.21875,0.4375 z"
         id="path1205" />
    </symbol>
    <symbol
       id="i"
       overflow="visible">
      <path
         d="m 1.7969,-1.3438 c -0.19922,0 -0.35156,0.039062 -0.45312,0.10938 -0.09375,0.0625 -0.14062,0.16406 -0.14062,0.29688 0,0.11719 0.035156,0.21094 0.10938,0.28125 0.082031,0.0625 0.19531,0.09375 0.34375,0.09375 0.17578,0 0.32812,-0.0625 0.45312,-0.1875 0.125,-0.125 0.1875,-0.28516 0.1875,-0.48438 V -1.3438 Z M 3.2657,-1.70318 V -8e-5 H 2.29695 v -0.4375 c -0.125,0.17969 -0.27344,0.30859 -0.4375,0.39062 -0.15625,0.082031 -0.35156,0.125 -0.57812,0.125 -0.3125,0 -0.57031,-0.085938 -0.76562,-0.26562 -0.1875,-0.1875 -0.28125,-0.42188 -0.28125,-0.70312 0,-0.35156 0.11719,-0.61328 0.35938,-0.78125 0.23828,-0.16406 0.61719,-0.25 1.1406,-0.25 h 0.5625 v -0.0625 c 0,-0.15625 -0.0625,-0.26562 -0.1875,-0.32812 -0.11719,-0.070312 -0.29688,-0.10938 -0.54688,-0.10938 -0.21094,0 -0.40234,0.023437 -0.57812,0.0625 -0.17969,0.042969 -0.33984,0.10156 -0.48438,0.17188 v -0.71875 c 0.19531,-0.050781 0.39844,-0.085938 0.60938,-0.10938 0.20703,-0.03125 0.41406,-0.046875 0.625,-0.046875 0.53906,0 0.92969,0.10938 1.1719,0.32812 0.23828,0.21094 0.35938,0.55469 0.35938,1.0312 z"
         id="path1208" />
    </symbol>
    <symbol
       id="b"
       overflow="visible">
      <path
         d="m 1.5,-3.8438 v 0.85938 h 0.98438 v 0.67188 H 1.5 v 1.2812 c 0,0.13672 0.023438,0.23047 0.078125,0.28125 0.0625,0.042969 0.17578,0.0625 0.34375,0.0625 h 0.48438 V -9e-5 h -0.8125 c -0.38672,0 -0.65625,-0.078125 -0.8125,-0.23438 -0.15625,-0.156255 -0.23438,-0.42188 -0.23438,-0.79688 v -1.2812 h -0.46875 v -0.67188 h 0.46875 v -0.85938 z"
         id="path1211" />
    </symbol>
    <symbol
       id="h"
       overflow="visible">
      <path
         d="M 2.5,-2.5469 V -4.1563 H 3.45312 V -1e-4 H 2.5 v -0.4375 c -0.13672,0.17969 -0.28125,0.30859 -0.4375,0.39062 -0.15625,0.082031 -0.33984,0.125 -0.54688,0.125 -0.375,0 -0.68359,-0.14453 -0.92188,-0.4375 -0.23047,-0.28906 -0.34375,-0.67188 -0.34375,-1.1406 0,-0.45703 0.11328,-0.83203 0.34375,-1.125 0.23828,-0.28906 0.54688,-0.4375 0.92188,-0.4375 0.19531,0 0.375,0.042969 0.53125,0.125 0.16406,0.085938 0.31641,0.21484 0.45312,0.39062 z m -0.64062,1.9375 c 0.20703,0 0.36328,-0.070313 0.46875,-0.21875 0.11328,-0.15625 0.17188,-0.37891 0.17188,-0.67188 0,-0.28125 -0.058594,-0.49219 -0.17188,-0.64062 -0.10547,-0.15625 -0.26172,-0.23438 -0.46875,-0.23438 -0.19922,0 -0.35547,0.078125 -0.46875,0.23438 -0.10547,0.14844 -0.15625,0.35938 -0.15625,0.64062 0,0.29297 0.050781,0.51562 0.15625,0.67188 0.11328,0.14844 0.26953,0.21875 0.46875,0.21875 z"
         id="path1214" />
    </symbol>
    <symbol
       id="g"
       overflow="visible">
      <path
         d="m 2.0469,-0.60938 c 0.20703,0 0.36328,-0.070313 0.46875,-0.21875 0.11328,-0.15625 0.17188,-0.37891 0.17188,-0.67188 0,-0.28125 -0.058594,-0.49219 -0.17188,-0.64062 -0.10547,-0.15625 -0.26172,-0.23438 -0.46875,-0.23438 -0.19922,0 -0.35547,0.078125 -0.46875,0.23438 -0.10547,0.14844 -0.15625,0.35938 -0.15625,0.64062 0,0.29297 0.050781,0.51562 0.15625,0.67188 0.11328,0.14844 0.26953,0.21875 0.46875,0.21875 z m -0.625,-1.9375 c 0.125,-0.17578 0.26562,-0.30469 0.42188,-0.39062 0.16406,-0.082031 0.35156,-0.125 0.5625,-0.125 0.36328,0 0.66406,0.14844 0.90625,0.4375 0.23828,0.29297 0.35938,0.66797 0.35938,1.125 0,0.46875 -0.12109,0.85156 -0.35938,1.1406 -0.24219,0.29297 -0.54297,0.4375 -0.90625,0.4375 -0.21094,0 -0.39844,-0.042969 -0.5625,-0.125 C 1.68753,-0.128931 1.5469,-0.25784 1.4219,-0.43752 V -2e-5 H 0.45315 v -4.1562 H 1.4219 Z"
         id="path1217" />
    </symbol>
    <symbol
       id="f"
       overflow="visible">
      <path
         d="m 0.0625,-2.9844 h 0.95312 l 0.8125,2.0156 0.6875,-2.0156 H 3.46874 L 2.20314,0.2812 C 2.07814,0.61323 1.9297,0.84761 1.76564,0.98432 1.59767,1.11713 1.37502,1.18744 1.09376,1.18744 H 0.54688 V 0.54682 h 0.29688 c 0.16406,0 0.28516,-0.027344 0.35938,-0.078125 0.070313,-0.054688 0.12891,-0.14062 0.17188,-0.26562 l 0.03125,-0.09375 z"
         id="path1220" />
    </symbol>
    <symbol
       id="e"
       overflow="visible">
      <path
         d="m 3.2812,-3.8594 v 0.84375 C 3.06245,-3.11721 2.84761,-3.19143 2.64058,-3.2344 2.42964,-3.285181 2.23433,-3.312525 2.04683,-3.312525 c -0.25,0 -0.43359,0.039062 -0.54688,0.10938 -0.11719,0.0625 -0.17188,0.16797 -0.17188,0.3125 0,0.10547 0.035156,0.1875 0.10938,0.25 0.082031,0.054687 0.22656,0.10156 0.4375,0.14062 l 0.4375,0.09375 c 0.44531,0.09375 0.75781,0.23047 0.9375,0.40625 0.1875,0.17969 0.28125,0.4375 0.28125,0.78125 0,0.4375 -0.13281,0.76562 -0.39062,0.98438 -0.26172,0.21094 -0.65625,0.3125 -1.1875,0.3125 -0.25,0 -0.50781,-0.027344 -0.76562,-0.078125 -0.25,-0.039062 -0.50781,-0.10938 -0.76562,-0.20312 v -0.875 c 0.25781,0.13672 0.50391,0.24219 0.73438,0.3125 0.23828,0.0625 0.47266,0.09375 0.70312,0.09375 0.21875,0 0.38281,-0.035156 0.5,-0.10938 0.125,-0.070312 0.1875,-0.17578 0.1875,-0.3125 0,-0.125 -0.042969,-0.21875 -0.125,-0.28125 C 2.335903,-1.445332 2.17575,-1.50783 1.93746,-1.56252 L 1.54684,-1.65627 C 1.14059,-1.738301 0.84372,-1.87502 0.65622,-2.06252 0.47653,-2.25002 0.3906,-2.50393 0.3906,-2.82814 c 0,-0.39453 0.125,-0.69531 0.375,-0.90625 0.25781,-0.21875 0.62891,-0.32812 1.1094,-0.32812 0.22656,0 0.45703,0.023438 0.6875,0.0625 0.22656,0.03125 0.46875,0.078125 0.71875,0.14062 z"
         id="path1223" />
    </symbol>
    <symbol
       id="t"
       overflow="visible">
      <path
         d="m 2.0938,-2.4375 c 0.16406,0 0.28906,-0.035156 0.375,-0.10938 0.082031,-0.070313 0.125,-0.17578 0.125,-0.3125 0,-0.14453 -0.042969,-0.25 -0.125,-0.3125 C 2.382862,-3.242193 2.25786,-3.28126 2.0938,-3.28126 H 1.5313 v 0.84375 z m 0.046875,1.7344 c 0.19531,0 0.34766,-0.039063 0.45312,-0.125 0.10156,-0.09375 0.15625,-0.22266 0.15625,-0.39062 0,-0.17578 -0.054688,-0.30469 -0.15625,-0.39062 -0.09375,-0.09375 -0.24609,-0.14062 -0.45312,-0.14062 h -0.60938 v 1.0469 z m 0.95312,-1.4375 c 0.21875,0.074219 0.38281,0.19922 0.5,0.375 0.125,0.16797 0.1875,0.375 0.1875,0.625 0,0.38672 -0.13281,0.67188 -0.39062,0.85938 C 3.128955,-0.09372 2.734425,3e-5 2.203175,3e-5 h -1.7031 v -3.9844 h 1.5469 c 0.55078,0 0.95312,0.085937 1.2031,0.25 0.25,0.16797 0.375,0.43359 0.375,0.79688 0,0.19922 -0.046875,0.36719 -0.14062,0.5 -0.09375,0.13672 -0.22656,0.23438 -0.39062,0.29688 z"
         id="path1226" />
    </symbol>
    <symbol
       id="s"
       overflow="visible">
      <path
         d="m 0.03125,-3.9844 h 3.6719 v 0.78125 H 2.37505 V -5e-5 h -1.0312 v -3.2031 h -1.3125 z"
         id="path1229" />
    </symbol>
    <symbol
       id="r"
       overflow="visible">
      <path
         d="m 2.4219,-4.1562 v 0.625 H 1.90628 c -0.13672,0 -0.23438,0.027344 -0.29688,0.078125 -0.054687,0.054687 -0.078125,0.13672 -0.078125,0.25 v 0.21875 h 0.82812 v 0.67188 h -0.82812 v 2.3125 h -0.95312 v -2.3125 h -0.46875 v -0.67188 h 0.46875 v -0.21875 c 0,-0.32031 0.085937,-0.5625 0.26562,-0.71875 0.1875,-0.15625 0.47266,-0.23438 0.85938,-0.23438 z"
         id="path1232" />
    </symbol>
    <symbol
       id="d"
       overflow="visible">
      <path
         d="m 1.875,-2.375 c -0.21094,0 -0.37109,0.078125 -0.48438,0.23438 -0.10547,0.14844 -0.15625,0.35938 -0.15625,0.64062 0,0.29297 0.050781,0.51562 0.15625,0.67188 0.11328,0.14844 0.27344,0.21875 0.48438,0.21875 0.20703,0 0.36719,-0.070313 0.48438,-0.21875 C 2.47266,-0.98437 2.53126,-1.20703 2.53126,-1.5 2.53126,-1.78125 2.472666,-1.99219 2.35938,-2.14062 2.24219,-2.29687 2.08204,-2.375 1.875,-2.375 Z m 0,-0.6875 c 0.51953,0 0.92188,0.14062 1.2031,0.42188 0.28906,0.27344 0.4375,0.65234 0.4375,1.1406 0,0.5 -0.14844,0.89062 -0.4375,1.1719 C 2.79685,-0.05468 2.39451,0.07813 1.875,0.07813 1.36328,0.07813 0.96094,-0.05468 0.6719,-0.32812 0.37893,-0.60937 0.2344,-1 0.2344,-1.50002 c 0,-0.48828 0.14453,-0.86719 0.4375,-1.1406 C 0.96096,-2.92187 1.36331,-3.0625 1.875,-3.0625 Z"
         id="path1235" />
    </symbol>
    <symbol
       id="q"
       overflow="visible">
      <path
         d="m 3.2344,-2.5 c 0.11328,-0.17578 0.25391,-0.3125 0.42188,-0.40625 0.16406,-0.10156 0.35156,-0.15625 0.5625,-0.15625 0.33203,0 0.58594,0.10938 0.76562,0.32812 0.1875,0.21094 0.28125,0.51172 0.28125,0.90625 V -3e-5 H 4.2969 v -1.5625 c 0.00781,-0.019531 0.015625,-0.039062 0.015625,-0.0625 v -0.10938 c 0,-0.21875 -0.03125,-0.375 -0.09375,-0.46875 -0.0625,-0.09375 -0.16406,-0.14062 -0.29688,-0.14062 -0.1875,0 -0.33594,0.078125 -0.4375,0.23438 -0.09375,0.14844 -0.14062,0.35938 -0.14062,0.64062 V 2e-5 h -0.96875 v -1.5625 c 0,-0.33203 -0.03125,-0.54688 -0.09375,-0.64062 -0.054688,-0.09375 -0.15234,-0.14062 -0.29688,-0.14062 -0.17969,0 -0.32031,0.078125 -0.42188,0.23438 -0.09375,0.14844 -0.14062,0.35938 -0.14062,0.64062 V 8e-5 h -0.96875 v -2.9844 h 0.96875 v 0.4375 c 0.11328,-0.17578 0.24219,-0.30469 0.39062,-0.39062 0.15625,-0.082031 0.32812,-0.125 0.51562,-0.125 0.20703,0 0.39062,0.054688 0.54688,0.15625 0.15625,0.09375 0.27344,0.23047 0.35938,0.40625 z"
         id="path1238" />
    </symbol>
    <symbol
       id="p"
       overflow="visible">
      <path
         d="M 3.4688,-1.8281 V 0 H 2.50005 v -1.3906 c 0,-0.25781 -0.00781,-0.4375 -0.015625,-0.53125 -0.011719,-0.10156 -0.03125,-0.17578 -0.0625,-0.21875 -0.03125,-0.0625 -0.085937,-0.10938 -0.15625,-0.14062 -0.0625,-0.039062 -0.13281,-0.0625 -0.20312,-0.0625 -0.21094,0 -0.37109,0.078125 -0.48438,0.23438 -0.10547,0.15625 -0.15625,0.37109 -0.15625,0.64062 V 8e-5 h -0.96875 v -4.1562 h 0.96875 v 1.6094 c 0.13281,-0.17578 0.28516,-0.30469 0.45312,-0.39062 0.16406,-0.082031 0.34375,-0.125 0.53125,-0.125 0.34375,0 0.60156,0.10938 0.78125,0.32812 0.1875,0.21094 0.28125,0.51172 0.28125,0.90625 z"
         id="path1241" />
    </symbol>
    <symbol
       id="o"
       overflow="visible">
      <path
         d="M 0.5,-3.9844 H 1.6562 L 3.0937,-1.25 V -3.9844 H 4.07808 V 0 H 2.92188 L 1.48438,-2.7344 V 0 H 0.5 Z"
         id="path1244" />
    </symbol>
    <symbol
       id="n"
       overflow="visible">
      <path
         d="m 0.42188,-1.1719 v -1.8125 h 0.96875 v 0.29688 0.60938 0.48438 c 0,0.24219 0.00391,0.41797 0.015625,0.53125 0.00781,0.10547 0.03125,0.17969 0.0625,0.21875 0.039062,0.0625 0.09375,0.11719 0.15625,0.15625 0.0625,0.03125 0.13281,0.046875 0.21875,0.046875 0.19531,0 0.35156,-0.078125 0.46875,-0.23438 0.11328,-0.15625 0.17188,-0.36719 0.17188,-0.64062 v -1.4688 h 0.95312 v 2.9844 h -0.95312 v -0.4375 c -0.14844,0.17969 -0.30469,0.30859 -0.46875,0.39062 -0.15625,0.082031 -0.33594,0.125 -0.53125,0.125 -0.34375,0 -0.60938,-0.10156 -0.79688,-0.3125 -0.17969,-0.21875 -0.26562,-0.53125 -0.26562,-0.9375 z"
         id="path1247" />
    </symbol>
    <symbol
       id="m"
       overflow="visible">
      <path
         d="M 3.4688,-1.8281 V 0 H 2.50005 v -1.3906 c 0,-0.25781 -0.00781,-0.4375 -0.015625,-0.53125 -0.011719,-0.10156 -0.03125,-0.17578 -0.0625,-0.21875 -0.03125,-0.0625 -0.085937,-0.10938 -0.15625,-0.14062 -0.0625,-0.039062 -0.13281,-0.0625 -0.20312,-0.0625 -0.21094,0 -0.37109,0.078125 -0.48438,0.23438 -0.10547,0.15625 -0.15625,0.37109 -0.15625,0.64062 V 8e-5 h -0.96875 v -2.9844 h 0.96875 v 0.4375 c 0.13281,-0.17578 0.28516,-0.30469 0.45312,-0.39062 0.16406,-0.082031 0.34375,-0.125 0.53125,-0.125 0.34375,0 0.60156,0.10938 0.78125,0.32812 0.1875,0.21094 0.28125,0.51172 0.28125,0.90625 z"
         id="path1250" />
    </symbol>
    <symbol
       id="l"
       overflow="visible">
      <path
         d="m 0.5,-3.9844 h 1.7031 c 0.50781,0 0.89844,0.11719 1.1719,0.34375 0.26953,0.21875 0.40625,0.53906 0.40625,0.95312 0,0.41797 -0.13672,0.74219 -0.40625,0.96875 -0.27344,0.21875 -0.66406,0.32812 -1.1719,0.32812 H 1.53122 V -6e-5 h -1.0312 z m 1.0312,0.75 v 1.1094 h 0.5625 c 0.19531,0 0.34766,-0.046875 0.45312,-0.14062 C 2.6601,-2.36718 2.7187,-2.50781 2.7187,-2.6875 2.7187,-2.86328 2.660106,-3 2.54682,-3.09375 2.44135,-3.1875 2.28901,-3.23437 2.0937,-3.23437 Z"
         id="path1253" />
    </symbol>
    <symbol
       id="k"
       overflow="visible">
      <path
         d="m 0.45312,-2.9844 h 0.96875 v 2.9375 c 0,0.39453 -0.10156,0.69531 -0.29688,0.90625 C 0.93749,1.0781 0.66015,1.18747 0.29687,1.18747 H -0.18751 V 0.54685 h 0.17188 c 0.17578,0 0.29688,-0.042969 0.35938,-0.125 C 0.414062,0.347631 0.45313,0.19138 0.45313,-0.0469 Z m 0,-1.1719 h 0.96875 v 0.78125 H 0.45312 Z"
         id="path1256" />
    </symbol>
    <symbol
       id="j"
       overflow="visible">
      <path
         d="m 2.875,-2.8906 v 0.76562 C 2.75,-2.207011 2.61719,-2.26951 2.48438,-2.31248 2.34766,-2.351542 2.21094,-2.37498 2.07813,-2.37498 c -0.27344,0 -0.48047,0.078125 -0.625,0.23438 -0.14844,0.15625 -0.21875,0.37109 -0.21875,0.64062 0,0.28125 0.070313,0.5 0.21875,0.65625 0.14453,0.15625 0.35156,0.23438 0.625,0.23438 0.14453,0 0.28516,-0.019531 0.42188,-0.0625 0.13281,-0.039063 0.25781,-0.10938 0.375,-0.20312 v 0.78125 c -0.14844,0.0625 -0.29688,0.10156 -0.45312,0.125 -0.15625,0.03125 -0.3125,0.046875 -0.46875,0.046875 -0.54297,0 -0.96484,-0.13281 -1.2656,-0.40625 -0.30469,-0.28125 -0.45312,-0.67188 -0.45312,-1.1719 0,-0.48828 0.14844,-0.86719 0.45312,-1.1406 0.30078,-0.28125 0.72266,-0.42188 1.2656,-0.42188 0.15625,0 0.3125,0.015625 0.46875,0.046875 0.15625,0.023437 0.30469,0.0625 0.45312,0.125 z"
         id="path1259" />
    </symbol>
  </defs>
  <g
     id="g1336"
     transform="translate(-66.796494,3.4079844)">
    <path
       d="M 315.77,269.61 185.94,179.376 v 198.95 z"
       id="path1264" />
    <path
       d="M 384.02,267.86 514.07,379.42 V 177.84 Z"
       id="path1266" />
    <path
       d="m 349.23,290.17 -22.422,-14.219 -138.25,115.06 h 321.56 l -136.83,-117.58 z"
       id="path1268" />
    <path
       d="M 191.73,168.98 349.01,276.5 508.26,168.98 Z"
       id="path1270" />
    <path
       d="m 350,553.44 c -73.062,0 -141.75,-28.438 -193.38,-80.062 -51.63,-51.624 -80.062,-120.31 -80.062,-193.38 0,-73.07 28.438,-141.75 80.062,-193.38 C 208.244,34.988 276.93,6.556 350,6.556 c 73.07,0 141.75,28.438 193.38,80.062 51.63,51.624 80.062,120.31 80.062,193.38 0,73.07 -28.438,141.75 -80.062,193.38 C 491.756,525.008 423.07,553.44 350,553.44 Z M 350,24.06 C 208.91,24.06 94.06,138.9 94.06,280 94.06,421.1 208.9,535.94 350,535.94 491.1,535.94 605.94,421.1 605.94,280 605.94,138.9 491.1,24.06 350,24.06 Z"
       id="path1272" />
    <use
       x="70"
       y="576.40625"
       xlink:href="#u"
       id="use1274" />
    <use
       x="74.011719"
       y="576.40625"
       xlink:href="#c"
       id="use1276" />
    <use
       x="76.710938"
       y="576.40625"
       xlink:href="#a"
       id="use1278" />
    <use
       x="80.417969"
       y="576.40625"
       xlink:href="#i"
       id="use1280" />
    <use
       x="84.109375"
       y="576.40625"
       xlink:href="#b"
       id="use1282" />
    <use
       x="86.722656"
       y="576.40625"
       xlink:href="#a"
       id="use1284" />
    <use
       x="90.433594"
       y="576.40625"
       xlink:href="#h"
       id="use1286" />
    <use
       x="96.25"
       y="576.40625"
       xlink:href="#g"
       id="use1288" />
    <use
       x="100.16797"
       y="576.40625"
       xlink:href="#f"
       id="use1290" />
    <use
       x="105.63672"
       y="576.40625"
       xlink:href="#e"
       id="use1292" />
    <use
       x="109.57422"
       y="576.40625"
       xlink:href="#t"
       id="use1294" />
    <use
       x="113.74219"
       y="576.40625"
       xlink:href="#s"
       id="use1296" />
    <use
       x="117.47266"
       y="576.40625"
       xlink:href="#e"
       id="use1298" />
    <use
       x="70"
       y="581.875"
       xlink:href="#r"
       id="use1300" />
    <use
       x="72.378906"
       y="581.875"
       xlink:href="#c"
       id="use1302" />
    <use
       x="75.078125"
       y="581.875"
       xlink:href="#d"
       id="use1304" />
    <use
       x="78.832031"
       y="581.875"
       xlink:href="#q"
       id="use1306" />
    <use
       x="86.4375"
       y="581.875"
       xlink:href="#b"
       id="use1308" />
    <use
       x="89.050781"
       y="581.875"
       xlink:href="#p"
       id="use1310" />
    <use
       x="92.941406"
       y="581.875"
       xlink:href="#a"
       id="use1312" />
    <use
       x="98.554688"
       y="581.875"
       xlink:href="#o"
       id="use1314" />
    <use
       x="103.13281"
       y="581.875"
       xlink:href="#d"
       id="use1316" />
    <use
       x="106.89062"
       y="581.875"
       xlink:href="#n"
       id="use1318" />
    <use
       x="110.78516"
       y="581.875"
       xlink:href="#m"
       id="use1320" />
    <use
       x="116.58203"
       y="581.875"
       xlink:href="#l"
       id="use1322" />
    <use
       x="120.58984"
       y="581.875"
       xlink:href="#c"
       id="use1324" />
    <use
       x="123.28516"
       y="581.875"
       xlink:href="#d"
       id="use1326" />
    <use
       x="127.04297"
       y="581.875"
       xlink:href="#k"
       id="use1328" />
    <use
       x="128.91797"
       y="581.875"
       xlink:href="#a"
       id="use1330" />
    <use
       x="132.625"
       y="581.875"
       xlink:href="#j"
       id="use1332" />
    <use
       x="135.86719"
       y="581.875"
       xlink:href="#b"
       id="use1334" />
  </g>
</svg>
