<?xml version="1.0" encoding="UTF-8"?>
<svg width="700pt" height="700pt" version="1.1" viewBox="0 0 700 700" xmlns="http://www.w3.org/2000/svg">
 <path d="m233.87 519.87 351.24-351.24c6.8438-6.8242 6.8438-17.922 0-24.746l-98.996-98.996c-6.8242-6.8438-17.922-6.8438-24.746 0l-351.24 351.24c-3.2891 3.2891-5.1289 7.7344-5.1289 12.371v98.996c0 9.6602 7.8398 17.5 17.5 17.5h98.996c4.6367 0 9.082-1.8359 12.371-5.1289zm-93.871-29.871h63.996l-63.996-63.996zm19.617-93.871 74.254 74.254 264.62-264.64-74.234-74.234zm289.38-289.36 24.746-24.762 74.254 74.254-24.762 24.746z" fill-rule="evenodd"/>
</svg>
