<?xml version="1.0" encoding="UTF-8" standalone="no"?>
<svg
   width="450pt"
   height="450pt"
   version="1.1"
   viewBox="0 0 450 450"
   id="svg464"
   sodipodi:docname="precalc.svg"
   inkscape:version="1.2.1 (9c6d41e410, 2022-07-14)"
   xmlns:inkscape="http://www.inkscape.org/namespaces/inkscape"
   xmlns:sodipodi="http://sodipodi.sourceforge.net/DTD/sodipodi-0.dtd"
   xmlns:xlink="http://www.w3.org/1999/xlink"
   xmlns="http://www.w3.org/2000/svg"
   xmlns:svg="http://www.w3.org/2000/svg">
  <sodipodi:namedview
     id="namedview466"
     pagecolor="#505050"
     bordercolor="#eeeeee"
     borderopacity="1"
     inkscape:showpageshadow="0"
     inkscape:pageopacity="0"
     inkscape:pagecheckerboard="0"
     inkscape:deskcolor="#505050"
     inkscape:document-units="pt"
     showgrid="false"
     inkscape:zoom="1.1003571"
     inkscape:cx="466.66667"
     inkscape:cy="466.66667"
     inkscape:window-width="2482"
     inkscape:window-height="1411"
     inkscape:window-x="2391"
     inkscape:window-y="-9"
     inkscape:window-maximized="1"
     inkscape:current-layer="svg464" />
  <defs
     id="defs406">
    <symbol
       id="p"
       overflow="visible">
      <path
         d="m 29.312,-1.75 c -1.5117,0.78125 -3.0898,1.3711 -4.7344,1.7656 -1.6367,0.40625 -3.3398,0.60938 -5.1094,0.60938 -5.3125,0 -9.5273,-1.4844 -12.641,-4.4531 -3.1055,-2.9688 -4.6562,-7 -4.6562,-12.094 0,-5.094 1.5508,-9.125 4.6562,-12.094 3.1133,-2.9688 7.3281,-4.4531 12.641,-4.4531 1.7695,0 3.4727,0.19922 5.1094,0.59375 1.6445,0.39844 3.2227,0.99219 4.7344,1.7812 v 6.5938 c -1.5312,-1.0391 -3.0391,-1.8008 -4.5156,-2.2812 -1.4805,-0.48828 -3.0391,-0.73438 -4.6719,-0.73438 -2.9375,0 -5.2461,0.94531 -6.9219,2.8281 -1.6797,1.875 -2.5156,4.4648 -2.5156,7.7656 0,3.293 0.83594,5.8828 2.5156,7.7656 1.6758,1.875 3.9844,2.8125 6.9219,2.8125 1.6328,0 3.1914,-0.23828 4.6719,-0.71875 1.4766,-0.48828 2.9844,-1.2539 4.5156,-2.2969 z"
         id="path358" />
    </symbol>
    <symbol
       id="j"
       overflow="visible">
      <path
         d="m 21.453,-17.406 c -0.67969,-0.3125 -1.3516,-0.53906 -2.0156,-0.6875 -0.65625,-0.15625 -1.3203,-0.23438 -1.9844,-0.23438 -1.9688,0 -3.4844,0.63281 -4.5469,1.8906 -1.0547,1.2617 -1.5781,3.0703 -1.5781,5.4219 V 6.2e-4 H 3.6718 v -23.922 h 7.6562 v 3.9219 c 0.97656,-1.5625 2.1016,-2.7031 3.375,-3.4219 1.2812,-0.71875 2.8125,-1.0781 4.5938,-1.0781 0.25,0 0.52344,0.01172 0.82812,0.03125 0.30078,0.02344 0.73438,0.07031 1.2969,0.14062 z"
         id="path361" />
    </symbol>
    <symbol
       id="b"
       overflow="visible">
      <path
         d="m 27.562,-12.031 v 2.1875 H 9.671 c 0.1875,1.793 0.83203,3.1367 1.9375,4.0312 1.1133,0.89844 2.6719,1.3438 4.6719,1.3438 1.6016,0 3.25,-0.23438 4.9375,-0.70312 1.6875,-0.47656 3.4219,-1.2031 5.2031,-2.1719 v 5.8906 c -1.8047,0.6875 -3.6094,1.2031 -5.4219,1.5469 -1.8125,0.35156 -3.6211,0.53125 -5.4219,0.53125 -4.3359,0 -7.7031,-1.0977 -10.109,-3.2969 -2.3984,-2.207 -3.5938,-5.2969 -3.5938,-9.2656 0,-3.9062 1.1758,-6.9727 3.5312,-9.2031 2.3633,-2.2383 5.6094,-3.3594 9.7344,-3.3594 3.7578,0 6.7695,1.1367 9.0312,3.4062 2.2578,2.2617 3.3906,5.2812 3.3906,9.0625 z m -7.8594,-2.5312 c 0,-1.457 -0.42969,-2.6289 -1.2812,-3.5156 -0.84375,-0.89453 -1.9492,-1.3438 -3.3125,-1.3438 -1.4922,0 -2.6992,0.41797 -3.625,1.25 -0.91797,0.83594 -1.4922,2.0391 -1.7188,3.6094 z"
         id="path364" />
    </symbol>
    <symbol
       id="i"
       overflow="visible">
      <path
         d="m 14.391,-10.766 c -1.5938,0 -2.793,0.27344 -3.5938,0.8125 -0.80469,0.54297 -1.2031,1.3398 -1.2031,2.3906 0,0.96875 0.32031,1.7305 0.96875,2.2812 0.64453,0.54297 1.5469,0.8125 2.7031,0.8125 1.4375,0 2.6445,-0.51562 3.625,-1.5469 0.98828,-1.0312 1.4844,-2.3203 1.4844,-3.875 v -0.875 z m 11.688,-2.8906 V -6e-4 h -7.7031 v -3.5469 c -1.0312,1.4492 -2.1875,2.5078 -3.4688,3.1719 -1.2813,0.6641 -2.8398,1 -4.6719,1 -2.4805,0 -4.4961,-0.72266 -6.0469,-2.1719 -1.543,-1.4453 -2.3125,-3.3203 -2.3125,-5.625 0,-2.8125 0.96094,-4.8672 2.8906,-6.1719 1.9375,-1.3125 4.9688,-1.9688 9.0938,-1.9688 h 4.5156 v -0.60938 c 0,-1.207 -0.48047,-2.0938 -1.4375,-2.6562 -0.94922,-0.5625 -2.4375,-0.84375 -4.4688,-0.84375 -1.6367,0 -3.1562,0.16797 -4.5625,0.5 -1.4062,0.32422 -2.7188,0.8125 -3.9375,1.4688 v -5.8281 c 1.6445,-0.40625 3.2891,-0.70703 4.9375,-0.90625 1.6562,-0.20703 3.3047,-0.3125 4.9531,-0.3125 4.3203,0 7.4375,0.85547 9.3438,2.5625 1.9141,1.6992 2.875,4.4609 2.875,8.2812 z"
         id="path367" />
    </symbol>
    <symbol
       id="h"
       overflow="visible">
      <path
         d="m 12.031,-30.719 v 6.7969 h 7.875 v 5.4688 h -7.875 v 10.141 c 0,1.1172 0.21875,1.8711 0.65625,2.2656 0.4375,0.38672 1.3125,0.57812 2.625,0.57812 h 3.9375 v 5.4688 h -6.5625 c -3.0234,0 -5.1641,-0.62891 -6.4219,-1.8906 -1.2617,-1.2578 -1.8906,-3.3984 -1.8906,-6.4219 v -10.141 h -3.7969 v -5.4688 h 3.7969 v -6.7969 z"
         id="path370" />
    </symbol>
    <symbol
       id="g"
       overflow="visible">
      <path
         d="m 19.953,-20.422 v -12.812 h 7.6875 V 0 H 19.953 v -3.4531 c -1.0547,1.4062 -2.2148,2.4375 -3.4844,3.0938 -1.2734,0.65625 -2.7422,0.98438 -4.4062,0.98438 -2.9492,0 -5.3711,-1.1719 -7.2656,-3.5156 -1.8867,-2.3438 -2.8281,-5.3594 -2.8281,-9.0469 0,-3.6875 0.94141,-6.7031 2.8281,-9.0469 1.8945,-2.3438 4.3164,-3.5156 7.2656,-3.5156 1.6562,0 3.1172,0.33594 4.3906,1 1.2812,0.65625 2.4453,1.6836 3.5,3.0781 z m -5.0469,15.484 c 1.6445,0 2.8945,-0.59766 3.75,-1.7969 0.86328,-1.1953 1.2969,-2.9297 1.2969,-5.2031 0,-2.2812 -0.43359,-4.0195 -1.2969,-5.2188 -0.85547,-1.1953 -2.1055,-1.7969 -3.75,-1.7969 -1.625,0 -2.8711,0.60156 -3.7344,1.7969 -0.85547,1.1992 -1.2812,2.9375 -1.2812,5.2188 0,2.2734 0.42578,4.0078 1.2812,5.2031 0.86328,1.1992 2.1094,1.7969 3.7344,1.7969 z"
         id="path373" />
    </symbol>
    <symbol
       id="f"
       overflow="visible">
      <path
         d="m 16.406,-4.9375 c 1.6328,0 2.8828,-0.59766 3.75,-1.7969 0.86328,-1.1953 1.2969,-2.9297 1.2969,-5.2031 0,-2.2812 -0.43359,-4.0195 -1.2969,-5.2188 -0.86719,-1.1953 -2.1172,-1.7969 -3.75,-1.7969 -1.6367,0 -2.8906,0.60547 -3.7656,1.8125 -0.875,1.1992 -1.3125,2.9336 -1.3125,5.2031 0,2.2617 0.4375,3.9961 1.3125,5.2031 0.875,1.1992 2.1289,1.7969 3.7656,1.7969 z m -5.0781,-15.484 c 1.0508,-1.3945 2.2188,-2.4219 3.5,-3.0781 1.2812,-0.66406 2.7539,-1 4.4219,-1 2.9453,0 5.3672,1.1719 7.2656,3.5156 1.8945,2.3438 2.8438,5.3594 2.8438,9.0469 0,3.6875 -0.94922,6.7031 -2.8438,9.0469 -1.8984,2.3438 -4.3203,3.5156 -7.2656,3.5156 -1.668,0 -3.1406,-0.33594 -4.4219,-1 -1.2813,-0.66406 -2.4492,-1.6914 -3.5,-3.0781 V 4e-4 H 3.6717 v -33.234 h 7.6562 z"
         id="path376" />
    </symbol>
    <symbol
       id="e"
       overflow="visible">
      <path
         d="m 0.53125,-23.922 h 7.6562 l 6.4219,16.234 5.4688,-16.234 h 7.6562 l -10.062,26.188 c -1.0117,2.6641 -2.1953,4.5234 -3.5469,5.5781 -1.3438,1.0625 -3.1211,1.5938 -5.3281,1.5938 H 4.37545 V 4.4223 h 2.3906 c 1.3008,0 2.2422,-0.21094 2.8281,-0.625 0.59375,-0.40625 1.0547,-1.1484 1.3906,-2.2188 l 0.20312,-0.65625 z"
         id="path379" />
    </symbol>
    <symbol
       id="a"
       overflow="visible">
      <path
         d="m 4.0156,-31.891 h 8.2188 v 25.672 h 14.453 V -2e-4 H 4.0154 Z"
         id="path382" />
    </symbol>
    <symbol
       id="o"
       overflow="visible">
      <path
         d="m 4.0156,-31.891 h 8.2188 v 19.109 c 0,2.6367 0.42969,4.5234 1.2969,5.6562 0.86328,1.1367 2.2695,1.7031 4.2188,1.7031 1.9688,0 3.3789,-0.56641 4.2344,-1.7031 0.86328,-1.1328 1.2969,-3.0195 1.2969,-5.6562 v -19.109 h 8.2344 v 19.109 c 0,4.5234 -1.1367,7.8867 -3.4062,10.094 -2.2617,2.2109 -5.7148,3.3125 -10.359,3.3125 -4.625,0 -8.0742,-1.1016 -10.344,-3.3125 C 5.1449,-4.895 4.016,-8.2583 4.016,-12.782 Z"
         id="path385" />
    </symbol>
    <symbol
       id="n"
       overflow="visible">
      <path
         d="m 0.21875,-31.891 h 29.391 v 6.2188 h -10.578 V -2e-4 h -8.2188 v -25.672 h -10.594 z"
         id="path388" />
    </symbol>
    <symbol
       id="m"
       overflow="visible">
      <path
         d="m 4.0156,-31.891 h 22.203 v 6.2188 h -13.984 v 5.9375 h 13.141 v 6.2188 H 12.2346 V 1e-4 H 4.0158 Z"
         id="path391" />
    </symbol>
    <symbol
       id="d"
       overflow="visible">
      <path
         d="m 4.0156,-31.891 h 8.2188 V 0 H 4.0156 Z"
         id="path394" />
    </symbol>
    <symbol
       id="l"
       overflow="visible">
      <path
         d="m 32.688,-2.375 c -2.0547,1 -4.1836,1.75 -6.3906,2.25 -2.2109,0.5 -4.4844,0.75 -6.8281,0.75 -5.3125,0 -9.5273,-1.4844 -12.641,-4.4531 -3.1055,-2.9688 -4.6562,-7 -4.6562,-12.094 0,-5.1328 1.5781,-9.1758 4.7344,-12.125 3.1641,-2.9453 7.5,-4.4219 13,-4.4219 2.125,0 4.1562,0.19922 6.0938,0.59375 1.9453,0.39844 3.7852,0.99219 5.5156,1.7812 v 6.5938 c -1.7812,-1.0078 -3.5547,-1.7656 -5.3125,-2.2656 -1.7617,-0.5 -3.5273,-0.75 -5.2969,-0.75 -3.2734,0 -5.793,0.91797 -7.5625,2.75 -1.7734,1.8359 -2.6562,4.4492 -2.6562,7.8438 0,3.375 0.85156,5.9844 2.5625,7.8281 1.707,1.8359 4.1328,2.75 7.2812,2.75 0.85156,0 1.6445,-0.050781 2.375,-0.15625 0.73828,-0.10156 1.3984,-0.26953 1.9844,-0.5 v -6.2031 h -5.0312 v -5.5 h 12.828 z"
         id="path397" />
    </symbol>
    <symbol
       id="c"
       overflow="visible">
      <path
         d="M 23.375,-5.8125 H 10.516 L 8.4848,0 H 0.2192 l 11.812,-31.891 h 9.7969 L 33.6401,0 h -8.2656 z m -10.812,-5.9219 h 8.7344 l -4.3594,-12.688 z"
         id="path400" />
    </symbol>
    <symbol
       id="k"
       overflow="visible">
      <path
         d="m 4.0156,-31.891 h 9.1875 l 11.594,21.875 V -31.891 H 32.594 V 0 H 23.4065 L 11.8125,-21.875 V 0 H 4.0156 Z"
         id="path403" />
    </symbol>
  </defs>
  <g
     id="g462"
     transform="translate(-132.2298,-47.711781)">
    <path
       d="m 334.69,131.25 c 0.0469,-3.6055 2.957,-6.5156 6.5625,-6.5625 3.6055,0.0469 6.5156,2.957 6.5625,6.5625 -0.0469,3.6055 -2.957,6.5156 -6.5625,6.5625 -3.6055,-0.0469 -6.5156,-2.957 -6.5625,-6.5625 z m -26.25,0 c 0,-3.625 2.9375,-6.5625 6.5625,-6.5625 3.6055,0.0469 6.5156,2.957 6.5625,6.5625 -0.0469,3.6055 -2.957,6.5156 -6.5625,6.5625 -3.625,0 -6.5625,-2.9375 -6.5625,-6.5625 z m -26.25,0 c 0,-3.625 2.9375,-6.5625 6.5625,-6.5625 3.6055,0.0469 6.5156,2.957 6.5625,6.5625 -0.0469,3.6055 -2.957,6.5156 -6.5625,6.5625 -3.625,0 -6.5625,-2.9375 -6.5625,-6.5625 z m -26.25,0 c 0,-3.625 2.9375,-6.5625 6.5625,-6.5625 3.6055,0.0469 6.5156,2.957 6.5625,6.5625 -0.0469,3.6055 -2.957,6.5156 -6.5625,6.5625 -3.625,0 -6.5625,-2.9375 -6.5625,-6.5625 z m -26.25,0 c 0,-3.625 2.9375,-6.5625 6.5625,-6.5625 3.6055,0.0469 6.5156,2.957 6.5625,6.5625 -0.0469,3.6055 -2.957,6.5156 -6.5625,6.5625 -3.625,0 -6.5625,-2.9375 -6.5625,-6.5625 z"
       id="path408" />
    <path
       d="m 492.19,393.75 c 0.0469,-3.6055 2.957,-6.5156 6.5625,-6.5625 3.6055,0.0469 6.5156,2.957 6.5625,6.5625 -0.0469,3.6055 -2.957,6.5156 -6.5625,6.5625 -3.6055,-0.0469 -6.5156,-2.957 -6.5625,-6.5625 z m 0,-26.25 c 0,-3.625 2.9375,-6.5625 6.5625,-6.5625 3.625,0 6.5625,2.9375 6.5625,6.5625 -0.0469,3.6055 -2.957,6.5156 -6.5625,6.5625 -3.6055,-0.0469 -6.5156,-2.957 -6.5625,-6.5625 z m 0,-26.25 c 0,-3.625 2.9375,-6.5625 6.5625,-6.5625 3.625,0 6.5625,2.9375 6.5625,6.5625 -0.0469,3.6055 -2.957,6.5156 -6.5625,6.5625 -3.6055,-0.0469 -6.5156,-2.957 -6.5625,-6.5625 z m 0,-26.25 c 0.0469,-3.6055 2.957,-6.5156 6.5625,-6.5625 3.6055,0.0469 6.5156,2.957 6.5625,6.5625 0,3.625 -2.9375,6.5625 -6.5625,6.5625 -3.625,0 -6.5625,-2.9375 -6.5625,-6.5625 z"
       id="path410" />
    <path
       d="m 282.19,392.35 c 0,-1.7344 0.69531,-3.3945 1.9258,-4.6094 1.2344,-1.2188 2.9062,-1.8906 4.6367,-1.8672 3.5898,0 6.5156,2.8867 6.5625,6.4766 0,3.6211 -2.9375,6.5625 -6.5625,6.5625 -1.7461,0.0234 -3.4297,-0.66016 -4.668,-1.8984 -1.2344,-1.2344 -1.918,-2.918 -1.8945,-4.6641 z m 0,-26.25 c 0,-1.7344 0.69531,-3.3945 1.9258,-4.6094 1.2344,-1.2188 2.9062,-1.8906 4.6367,-1.8672 3.5898,0 6.5156,2.8867 6.5625,6.4766 0,3.6211 -2.9375,6.5625 -6.5625,6.5625 -1.7461,0.0234 -3.4297,-0.66016 -4.668,-1.8984 -1.2344,-1.2344 -1.918,-2.918 -1.8945,-4.6641 z m 0,-26.25 c 0,-1.7344 0.69531,-3.3945 1.9258,-4.6094 1.2344,-1.2188 2.9062,-1.8906 4.6367,-1.8672 3.5898,0 6.5156,2.8867 6.5625,6.4766 0,3.6211 -2.9375,6.5625 -6.5625,6.5625 -1.7461,0.0234 -3.4297,-0.66016 -4.668,-1.8984 -1.2344,-1.2344 -1.918,-2.918 -1.8945,-4.6641 z m 0,-26.25 c 0,-3.625 2.9375,-6.5625 6.5625,-6.5625 3.6055,0.0469 6.5156,2.957 6.5625,6.5625 0,3.6211 -2.9375,6.5625 -6.5625,6.5625 -1.7461,0.0234 -3.4297,-0.66016 -4.668,-1.8984 -1.2344,-1.2344 -1.918,-2.918 -1.8945,-4.6641 z m 0,-26.25 c 0,-3.625 2.9375,-6.5625 6.5625,-6.5625 3.6055,0.0469 6.5156,2.957 6.5625,6.5625 0,3.6367 -2.9258,6.6016 -6.5625,6.6484 -1.7539,0 -3.4375,-0.70312 -4.6719,-1.9531 -1.2344,-1.24998 -1.9141,-2.9414 -1.8906,-4.6953 z m 0,-26.25 c 0,-3.625 2.9375,-6.5625 6.5625,-6.5625 3.6055,0.0469 6.5156,2.957 6.5625,6.5625 0,3.6367 -2.9258,6.6016 -6.5625,6.6484 -1.7539,0 -3.4375,-0.70312 -4.6719,-1.9531 -1.2344,-1.24998 -1.9141,-2.9414 -1.8906,-4.6953 z m 0,-26.25 c 0,-3.625 2.9375,-6.5625 6.5625,-6.5625 3.6055,0.0469 6.5156,2.957 6.5625,6.5625 0,3.6367 -2.9258,6.6016 -6.5625,6.6484 -1.7539,0 -3.4375,-0.70312 -4.6719,-1.9531 -1.2344,-1.24998 -1.9141,-2.9414 -1.8906,-4.6953 z m 0,-26.25 c 0,-3.625 2.9375,-6.5625 6.5625,-6.5625 3.6055,0.0469 6.5156,2.957 6.5625,6.5625 0,3.6367 -2.9258,6.6016 -6.5625,6.6484 -1.7539,0 -3.4375,-0.70312 -4.6719,-1.9531 -1.2344,-1.24998 -1.9141,-2.9414 -1.8906,-4.6953 z m 0,-26.25 c 0,-3.625 2.9375,-6.5625 6.5625,-6.5625 3.6055,0.0469 6.5156,2.957 6.5625,6.5625 0,3.6367 -2.9258,6.6016 -6.5625,6.6484 -1.7539,0 -3.4375,-0.70312 -4.6719,-1.9531 -1.2344,-1.24998 -1.9141,-2.9414 -1.8906,-4.6953 z m 0,-26.25 c -0.0234,-1.7578 0.65625,-3.4492 1.8906,-4.6992 1.23435,-1.25 2.918,-1.9531 4.6719,-1.9531 3.6367,0.0469 6.5625,3.0117 6.5625,6.6523 -0.0469,3.6016 -2.957,6.5156 -6.5625,6.5625 -3.5898,0 -6.5156,-2.8867 -6.5625,-6.4766 z m 0,-26.25 c -0.0234,-1.7578 0.65625,-3.4492 1.8906,-4.6992 1.23435,-1.25 2.918,-1.9531 4.6719,-1.9531 3.6367,0.0469 6.5625,3.0117 6.5625,6.6523 -0.0469,3.6016 -2.957,6.5156 -6.5625,6.5625 -3.5898,0 -6.5156,-2.8867 -6.5625,-6.4766 z m 0,-26.25 c 0,-1.7344 0.69531,-3.3945 1.9258,-4.6094 1.2344,-1.2188 2.9062,-1.8906 4.6367,-1.8672 3.625,0 6.5625,2.9375 6.5625,6.5625 -0.0469,3.6055 -2.957,6.5156 -6.5625,6.5625 -3.625,0 -6.5625,-2.9375 -6.5625,-6.5625 z"
       id="path412" />
    <path
       d="m 544.69,341.25 c 0,-3.625 2.9375,-6.5625 6.5625,-6.5625 3.6055,0.0469 6.5156,2.957 6.5625,6.5625 0,3.625 -2.9375,6.5625 -6.5625,6.5625 -1.7461,0.0234 -3.4297,-0.66016 -4.668,-1.8945 -1.2344,-1.2383 -1.918,-2.9219 -1.8945,-4.668 z m -26.25,0 c 0,-3.625 2.9375,-6.5625 6.5625,-6.5625 3.6055,0.0469 6.5156,2.957 6.5625,6.5625 0,3.625 -2.9375,6.5625 -6.5625,6.5625 -1.7461,0.0234 -3.4297,-0.66016 -4.668,-1.8945 -1.2344,-1.2383 -1.918,-2.9219 -1.8945,-4.668 z m -26.25,0 c 0.0469,-3.6055 2.957,-6.5156 6.5625,-6.5625 3.6055,0.0469 6.5156,2.957 6.5625,6.5625 0,3.625 -2.9375,6.5625 -6.5625,6.5625 -3.625,0 -6.5625,-2.9375 -6.5625,-6.5625 z m -26.25,0 c 0.0469,-3.6055 2.957,-6.5156 6.5625,-6.5625 3.6055,0.0469 6.5156,2.957 6.5625,6.5625 0,3.625 -2.9375,6.5625 -6.5625,6.5625 -3.625,0 -6.5625,-2.9375 -6.5625,-6.5625 z m -26.25,0 c 0,-3.625 2.9375,-6.5625 6.5625,-6.5625 3.6055,0.0469 6.5156,2.957 6.5625,6.5625 0,3.625 -2.9375,6.5625 -6.5625,6.5625 -1.7461,0.0234 -3.4297,-0.66016 -4.668,-1.8945 -1.2344,-1.2383 -1.918,-2.9219 -1.8945,-4.668 z m -26.25,0 c 0,-3.625 2.9375,-6.5625 6.5625,-6.5625 3.6055,0.0469 6.5156,2.957 6.5625,6.5625 0,3.625 -2.9375,6.5625 -6.5625,6.5625 -1.7461,0.0234 -3.4297,-0.66016 -4.668,-1.8945 -1.2344,-1.2383 -1.918,-2.9219 -1.8945,-4.668 z m -26.25,0 c 0.0469,-3.6055 2.957,-6.5156 6.5625,-6.5625 3.6055,0.0469 6.5156,2.957 6.5625,6.5625 0,3.625 -2.9375,6.5625 -6.5625,6.5625 -3.625,0 -6.5625,-2.9375 -6.5625,-6.5625 z m -26.25,0 c 0.0469,-3.6055 2.957,-6.5156 6.5625,-6.5625 3.6055,0.0469 6.5156,2.957 6.5625,6.5625 0,3.625 -2.9375,6.5625 -6.5625,6.5625 -3.625,0 -6.5625,-2.9375 -6.5625,-6.5625 z m -26.25,0 c 0.0469,-3.6055 2.957,-6.5156 6.5625,-6.5625 3.6055,0.0469 6.5156,2.957 6.5625,6.5625 0,3.625 -2.9375,6.5625 -6.5625,6.5625 -3.625,0 -6.5625,-2.9375 -6.5625,-6.5625 z m -26.25,0 c 0,-3.625 2.9375,-6.5625 6.5625,-6.5625 3.6055,0.0469 6.5156,2.957 6.5625,6.5625 0,3.625 -2.9375,6.5625 -6.5625,6.5625 -1.7461,0.0234 -3.4297,-0.66016 -4.668,-1.8945 -1.2344,-1.2383 -1.918,-2.9219 -1.8945,-4.668 z m -26.25,0 c 0,-3.625 2.9375,-6.5625 6.5625,-6.5625 3.6055,0.0469 6.5156,2.957 6.5625,6.5625 0,3.625 -2.9375,6.5625 -6.5625,6.5625 -1.7461,0.0234 -3.4297,-0.66016 -4.668,-1.8945 -1.2344,-1.2383 -1.918,-2.9219 -1.8945,-4.668 z m -26.25,0 c 0.0469,-3.6055 2.957,-6.5156 6.5625,-6.5625 3.625,0 6.5625,2.9375 6.5625,6.5625 0.0234,1.7461 -0.66016,3.4297 -1.8945,4.668 -1.2383,1.2344 -2.9219,1.918 -4.668,1.8945 -3.625,0 -6.5625,-2.9375 -6.5625,-6.5625 z m -26.25,0 c 0.0469,-3.6055 2.957,-6.5156 6.5625,-6.5625 3.6055,0.0469 6.5156,2.957 6.5625,6.5625 0,3.625 -2.9375,6.5625 -6.5625,6.5625 -3.625,0 -6.5625,-2.9375 -6.5625,-6.5625 z"
       id="path414" />
    <path
       d="M 560,409.06 H 148.75 c -3.625,0 -6.5625,-2.9375 -6.5625,-6.5625 0,-3.625 2.9375,-6.5625 6.5625,-6.5625 H 560 c 3.625,0 6.5625,2.9375 6.5625,6.5625 0,3.625 -2.9375,6.5625 -6.5625,6.5625 z"
       id="path416" />
    <path
       d="m 227.5,487.81 c -3.6055,-0.0469 -6.5156,-2.957 -6.5625,-6.5625 v -402.5 c 0,-3.625 2.9375,-6.5625 6.5625,-6.5625 3.625,0 6.5625,2.9375 6.5625,6.5625 v 402.5 c -0.0469,3.6055 -2.957,6.5156 -6.5625,6.5625 z"
       id="path418" />
    <path
       d="m 498.75,347.81 c -57.422,-0.0469 -112.48,-22.879 -153.08,-63.48 -40.602,-40.605 -63.434,-95.66 -63.48,-153.08 0,-3.625 2.9375,-6.5625 6.5625,-6.5625 3.625,0 6.5625,2.9375 6.5625,6.5625 0.0703,53.934 21.523,105.64 59.664,143.77 38.137,38.141 89.84,59.594 143.77,59.664 3.625,0 6.5625,2.9375 6.5625,6.5625 0,3.625 -2.9375,6.5625 -6.5625,6.5625 z"
       id="path420" />
    <use
       x="70"
       y="691.25"
       xlink:href="#p"
       id="use422" />
    <use
       x="102.10938"
       y="691.25"
       xlink:href="#j"
       id="use424" />
    <use
       x="123.68359"
       y="691.25"
       xlink:href="#b"
       id="use426" />
    <use
       x="153.35547"
       y="691.25"
       xlink:href="#i"
       id="use428" />
    <use
       x="182.87891"
       y="691.25"
       xlink:href="#h"
       id="use430" />
    <use
       x="203.79297"
       y="691.25"
       xlink:href="#b"
       id="use432" />
    <use
       x="233.46484"
       y="691.25"
       xlink:href="#g"
       id="use434" />
    <use
       x="280.01172"
       y="691.25"
       xlink:href="#f"
       id="use436" />
    <use
       x="311.32812"
       y="691.25"
       xlink:href="#e"
       id="use438" />
    <use
       x="355.07812"
       y="691.25"
       xlink:href="#a"
       id="use440" />
    <use
       x="382.95703"
       y="691.25"
       xlink:href="#o"
       id="use442" />
    <use
       x="418.48438"
       y="691.25"
       xlink:href="#n"
       id="use444" />
    <use
       x="448.32812"
       y="691.25"
       xlink:href="#m"
       id="use446" />
    <use
       x="478.21094"
       y="691.25"
       xlink:href="#d"
       id="use448" />
    <use
       x="509.72266"
       y="691.25"
       xlink:href="#l"
       id="use450" />
    <use
       x="545.63281"
       y="691.25"
       xlink:href="#c"
       id="use452" />
    <use
       x="579.49219"
       y="691.25"
       xlink:href="#k"
       id="use454" />
    <use
       x="616.10547"
       y="691.25"
       xlink:href="#d"
       id="use456" />
    <use
       x="647.61719"
       y="691.25"
       xlink:href="#c"
       id="use458" />
    <use
       x="681.47656"
       y="691.25"
       xlink:href="#a"
       id="use460" />
  </g>
</svg>
